<?xml version="1.0" standalone="no"?>
<!DOCTYPE svg PUBLIC "-//W3C//DTD SVG 20010904//EN"
 "http://www.w3.org/TR/2001/REC-SVG-20010904/DTD/svg10.dtd">
<svg version="1.0" xmlns="http://www.w3.org/2000/svg"
 width="16.000000pt" height="16.000000pt" viewBox="0 0 16.000000 16.000000"
 preserveAspectRatio="xMidYMid meet">
<metadata>
Created by potrace 1.11, written by Peter Selinger 2001-2013
</metadata>
<g transform="translate(0.000000,16.000000) scale(0.001608,-0.001608)"
fill="#000000" stroke="none">
<path d="M5528 8083 c-1 -5 -42 -32 -90 -61 l-87 -53 -283 -4 c-286 -4 -308
-5 -543 -31 -540 -60 -1063 -218 -1550 -469 -926 -476 -1651 -1216 -2092
-2135 -198 -412 -327 -816 -408 -1270 -18 -104 -42 -322 -51 -470 -33 -524 25
-1038 178 -1595 17 -60 31 -116 31 -122 0 -10 157 -13 749 -13 411 0 748 4
748 8 0 4 -4 12 -9 18 -12 11 -108 256 -149 380 -77 231 -137 518 -157 758 -8
97 -8 502 0 571 63 534 206 969 456 1386 55 92 163 255 179 269 3 3 25 32 50
65 181 244 505 545 770 717 192 124 486 279 635 334 272 100 537 165 820 199
153 18 610 13 768 -9 263 -37 506 -98 743 -186 144 -54 318 -132 327 -147 6
-10 13 -57 22 -153 3 -36 8 -81 10 -100 2 -19 7 -62 10 -95 l6 -61 -468 -258
-468 -257 -166 46 -165 47 -28 86 c-78 241 -234 464 -373 533 -43 21 -61 24
-173 24 -120 0 -128 -1 -194 -33 -239 -113 -398 -314 -397 -502 0 -152 102
-340 257 -477 122 -108 156 -121 248 -97 28 7 52 12 54 10 7 -7 -30 -70 -77
-131 -44 -58 -439 -535 -451 -545 -38 -32 -93 -131 -171 -304 -103 -230 -88
-212 -234 -291 -170 -93 -133 -50 -440 -523 -163 -251 -288 -434 -300 -438
-10 -4 -102 -47 -203 -95 -102 -49 -188 -89 -193 -89 -33 0 -42 -77 -43 -365
l-1 -110 110 -55 c61 -30 140 -68 177 -85 36 -16 65 -32 63 -35 -2 -3 11 -7
28 -8 31 -2 36 4 132 153 l100 154 -3 93 -2 93 540 380 541 380 14 50 c8 28
26 93 40 145 14 52 28 103 31 112 4 15 151 110 326 212 l46 27 159 -188 c87
-103 165 -197 175 -208 139 -168 185 -223 196 -237 13 -17 -15 -91 -132 -351
-13 -29 -70 -158 -126 -287 -56 -129 -110 -253 -120 -275 -72 -160 -109 -249
-106 -252 1 -2 608 -2 1348 -1 l1345 3 -469 1410 c-257 776 -468 1415 -468
1421 0 7 37 45 82 85 121 108 159 143 172 155 6 5 36 32 66 59 30 26 89 78
130 115 41 37 90 80 108 95 24 20 60 83 131 230 54 111 103 205 109 209 10 6
160 -152 258 -272 10 -13 27 -33 38 -45 40 -48 157 -218 215 -314 226 -377
379 -809 456 -1286 28 -181 38 -478 22 -724 -19 -291 -133 -759 -246 -1006
-17 -36 -37 -82 -45 -102 l-15 -35 748 0 748 0 36 133 c69 248 133 583 156
812 11 116 12 829 0 920 -4 39 -11 90 -14 115 -101 799 -398 1561 -857 2199
-177 245 -319 405 -600 676 -355 343 -870 675 -1379 890 -296 125 -738 254
-1033 300 -21 4 -46 8 -55 10 -9 2 -42 6 -74 10 -31 4 -57 11 -57 15 0 4 9 18
20 32 l19 25 -65 47 c-58 42 -107 58 -116 39z"/>
</g>
</svg>
